<svg width="390" height="537" viewBox="0 0 390 537" fill="none" xmlns="http://www.w3.org/2000/svg">
<g clip-path="url(#clip0_3_64)">
<path d="M0 50H390V537L379 511.5L356 474.5L298.5 341.5L262.5 353L179.5 147.5L126 277.5L76.5 300.5L0 537V50Z" fill="#B0C4B0"/>
<path d="M0 30H390V517L379 491.5L356 454.5L298.5 321.5L262.5 333L179.5 127.5L126 257.5L76.5 280.5L0 517V30Z" fill="#A7D3A6"/>
<path d="M0 30H390V517L379 491.5L356 454.5L298.5 321.5L262.5 333L179.5 127.5L126 257.5L76.5 280.5L0 517V30Z" fill="#A7D3A6"/>
<path d="M0 0H390V487L379 461.5L356 424.5L298.5 291.5L262.5 303L179.5 97.5L126 227.5L76.5 250.5L0 487V0Z" fill="#7FFF7C"/>
</g>
<defs>
<clipPath id="clip0_3_64">
<rect width="390" height="537" fill="white"/>
</clipPath>
</defs>
</svg>
